<?xml version="1.0" encoding="UTF-8"?>
<svg id="Layer_1" data-name="Layer 1" xmlns="http://www.w3.org/2000/svg" viewBox="0 0 24 24">
  <path d="M19.7,3.5h-2.2v-1.1c0-.6-.5-1.1-1.1-1.1s-1.1,.5-1.1,1.1v1.1h-6.5v-1.1c0-.6-.5-1.1-1.1-1.1s-1.1,.5-1.1,1.1v1.1h-2.2c-1.8,0-3.2,1.4-3.2,3.2v12.9c0,1.8,1.4,3.2,3.2,3.2h15.1c1.8,0,3.2-1.4,3.2-3.2V6.7c0-1.8-1.4-3.2-3.2-3.2Zm1.1,16.1c0,.6-.5,1.1-1.1,1.1H4.6c-.6,0-1.1-.5-1.1-1.1v-7.5H20.8v7.5Zm0-9.7H3.6v-3.2c0-.6,.5-1.1,1.1-1.1h2.2v1.1c0,.6,.5,1.1,1.1,1.1s1.1-.5,1.1-1.1v-1.1h6.5v1.1c0,.6,.5,1.1,1.1,1.1s1.1-.5,1.1-1.1v-1.1h2.2c.6,0,1.1,.5,1.1,1.1v3.2Z"/>
</svg>